<?xml version="1.0" standalone="no"?>
<!DOCTYPE svg PUBLIC "-//W3C//DTD SVG 20010904//EN"
 "http://www.w3.org/TR/2001/REC-SVG-20010904/DTD/svg10.dtd">
<svg version="1.0" xmlns="http://www.w3.org/2000/svg"
 width="431.000000pt" height="900.000000pt" viewBox="0 0 431.000000 900.000000"
 preserveAspectRatio="xMidYMid meet">
<g transform="translate(0.000000,900.000000) scale(0.100000,-0.100000)"
fill="#521f26" stroke="none">
<path d="M2012 8725 c-137 -39 -219 -124 -322 -335 -62 -129 -84 -225 -76
-333 7 -105 17 -114 33 -31 64 331 363 548 753 547 l145 -1 -40 35 c-114 98
-356 157 -493 118z M2425 8489 c-145 -14 -307 -70 -382 -133 -15 -13 -53 -36
-83 -51 -225 -113 -199 -318 54 -416 94 -36 159 -35 299 2 94 26 102 34 37 42
-203 24 -353 179 -294 303 76 161 492 168 669 13 170 -150 -4 -362 -369 -449
-43 -11 -80 -21 -82 -23 -3 -2 32 -25 77 -51 l82 -48 76 30 c42 17 123 44 181
60 216 62 280 98 335 186 45 74 42 133 -17 266 -25 58 -51 121 -57 141 -25 80
-92 115 -253 129 -125 11 -156 11 -273 -1z M1465 8362 c-288 -100 -376 -377
-203 -643 87 -135 232 -251 488 -389 164 -88 285 -165 345 -221 52 -48 56 -44
18 20 -47 82 -115 163 -261 314 -239 248 -312 365 -342 551 -18 116 15 265 80
357 l21 29 -48 0 c-26 -1 -71 -8 -98 -18z M2307 8270 c-112 -19 -162 -72 -130
-138 23 -47 166 -122 279 -148 l75 -16 40 26 c113 75 104 191 -19 244 -42 18
-159 44 -187 41 -5 -1 -32 -5 -58 -9z M3130 8156 c83 -182 81 -408 -6 -651 -9
-27 90 69 177 172 72 84 135 131 203 153 l38 12 -6 44 c-23 171 -178 307 -375
330 l-61 7 30 -67z M715 7958 c-48 -18 -97 -55 -132 -99 -40 -51 -41 -65 -4
-72 105 -21 172 -181 191 -460 14 -195 24 -263 56 -362 82 -250 253 -437 506
-554 137 -63 141 -62 67 15 -207 218 -279 457 -249 827 30 355 -51 596 -230
688 -51 27 -156 36 -205 17z M1746 7914 c-3 -26 -6 -78 -6 -116 l0 -69 178
-182 177 -182 36 55 c35 53 104 124 161 167 l28 21 -33 24 c-68 52 -123 81
-252 132 -150 60 -214 100 -252 157 -32 48 -29 48 -37 -7z M3054 7816 c-60
-61 -140 -99 -316 -150 -286 -83 -435 -174 -544 -331 l-36 -54 39 -58 c21 -33
56 -98 77 -145 l39 -86 60 44 c33 25 132 81 220 125 88 44 182 96 208 115 131
96 240 274 279 453 28 128 25 139 -26 87z M3553 7736 c-74 -18 -121 -53 -194
-143 -218 -270 -336 -362 -650 -508 -159 -73 -236 -118 -319 -181 -60 -46
-136 -121 -129 -127 12 -12 607 -446 626 -457 53 -34 276 90 413 229 157 159
235 319 280 576 48 270 130 400 305 485 l79 39 -55 25 c-140 62 -268 84 -356
62z M1264 7351 c-20 -415 -3 -532 107 -718 39 -65 175 -213 196 -213 8 0 58
33 111 73 53 40 176 130 272 199 234 169 224 155 166 222 -88 104 -197 181
-418 297 -192 102 -256 145 -349 239 l-76 76 -9 -175z M1915 6524 c-132 -96
-289 -211 -350 -254 -60 -44 -126 -93 -145 -109 l-35 -30 113 -1 112 0 0 -202
0 -203 -30 54 c-131 237 -379 387 -770 465 -132 26 -319 51 -460 62 l-85 7 41
-31 c79 -58 153 -187 230 -398 147 -408 360 -587 715 -602 102 -4 289 12 289
25 0 11 -79 125 -130 188 -129 158 -350 342 -534 444 -108 60 -105 63 12 15
303 -125 577 -352 722 -600 29 -50 51 -73 96 -102 174 -113 310 -361 314 -574
2 -127 4 -122 -41 -147 -49 -28 -66 -59 -50 -90 12 -21 15 -21 264 -19 l252 3
0 40 c0 38 -3 41 -47 64 l-48 24 0 64 c0 193 83 393 235 567 40 46 84 105 98
132 123 240 399 485 694 618 149 66 159 64 39 -8 -233 -140 -448 -332 -576
-514 -36 -51 -66 -96 -68 -101 -4 -12 150 -31 251 -31 266 0 496 121 632 335
44 68 69 123 136 298 69 180 114 262 184 335 l61 62 -38 0 c-70 0 -432 -50
-547 -76 -339 -76 -582 -226 -703 -434 l-38 -65 0 197 0 197 116 3 116 3 -44
31 c-23 17 -195 142 -381 278 -185 136 -343 249 -350 251 -6 2 -120 -75 -252
-171z m558 -252 l87 -64 0 -366 c0 -202 -3 -385 -7 -406 -5 -31 -23 -57 -88
-125 -126 -133 -215 -278 -251 -411 -19 -67 -25 -67 -43 0 -50 176 -206 394
-346 483 -27 17 -53 36 -57 42 -4 5 -8 184 -8 397 l0 387 163 117 c89 65 179
130 201 145 l38 28 112 -81 c61 -45 150 -110 199 -146z M2092 6117 c-41 -13
-90 -60 -108 -104 -10 -23 -14 -80 -14 -193 l0 -160 85 0 85 0 0 235 c0 129
-3 235 -7 234 -5 -1 -23 -6 -41 -12z M2186 6123 c-3 -4 -6 -109 -6 -235 l0
-228 85 0 85 0 0 165 c0 183 -10 223 -67 263 -33 23 -89 43 -97 35z M1855
4348 c-26 -15 -35 -28 -35 -55 0 -24 43 -63 70 -63 9 0 39 -23 65 -51 44 -47
47 -53 41 -91 -6 -35 -3 -43 24 -68 l30 -28 0 -337 c0 -185 -3 -335 -7 -333
-82 42 -131 60 -174 65 l-53 6 41 -49 c23 -27 60 -88 82 -137 32 -69 48 -92
76 -108 l35 -21 0 -166 1 -167 76 80 c90 94 156 193 184 272 18 52 19 87 19
478 l0 421 30 23 c29 21 30 25 24 70 -6 46 -5 48 41 93 26 26 60 50 76 53 58
13 76 70 33 104 -26 20 -38 21 -343 21 -217 -1 -322 -4 -336 -12z M2614 3560
c-118 -28 -187 -133 -203 -311 -21 -217 -68 -301 -309 -554 -79 -82 -164 -177
-188 -211 -184 -257 -161 -545 58 -748 l78 -73 0 -632 c0 -715 -6 -661 85
-730 l56 -43 55 43 c30 23 62 52 70 63 12 17 14 181 14 1132 l0 1111 -118
-121 c-178 -182 -162 -141 -162 -427 l0 -242 -24 22 c-64 60 -114 210 -102
308 15 130 71 220 255 408 280 287 349 411 369 666 14 169 63 259 170 310 44
22 46 23 22 30 -33 9 -87 9 -126 -1z M2397 1593 c-4 -3 -7 -213 -7 -465 l0
-458 74 0 c80 0 86 4 86 72 0 36 51 78 95 78 56 0 95 -41 95 -101 l0 -49 140
0 140 0 0 165 0 165 -65 0 -65 0 0 -30 c0 -28 -3 -30 -35 -30 -135 0 -224 163
-159 291 42 83 194 137 194 68 0 -17 7 -19 65 -19 l65 0 0 160 0 160 -308 0
c-170 0 -312 -3 -315 -7z"/>
</g>
</svg>
