<?xml version="1.0" standalone="no"?>
<!DOCTYPE svg PUBLIC "-//W3C//DTD SVG 20010904//EN"
 "http://www.w3.org/TR/2001/REC-SVG-20010904/DTD/svg10.dtd">
<svg version="1.0" xmlns="http://www.w3.org/2000/svg"
 width="1600.000000pt" height="323.000000pt" viewBox="0 0 1600.000000 323.000000"
 preserveAspectRatio="xMidYMid meet">
<g transform="translate(0.000000,323.000000) scale(0.100000,-0.100000)"
fill="#fbf9f6" stroke="none">
<path d="M1675 2760 c-27 -5 -80 -11 -118 -15 -74 -7 -82 -20 -16 -24 74 -4
69 42 69 -637 l0 -614 -26 -10 c-14 -6 -43 -10 -65 -10 -24 0 -38 -4 -34 -10
8 -13 392 -13 400 0 4 6 -12 10 -40 10 -93 0 -85 -67 -85 670 0 613 -1 650
-17 649 -10 -1 -40 -5 -68 -9z M12255 2760 c-22 -4 -71 -10 -110 -12 -75 -4
-96 -19 -31 -23 71 -3 67 32 64 -673 -2 -347 -2 -632 0 -632 1 0 34 33 73 73
l71 72 16 -25 c48 -74 141 -130 218 -130 52 0 152 41 196 80 267 235 169 738
-154 785 -91 14 -231 -56 -253 -126 -17 -51 -20 6 -17 301 3 359 11 326 -73
310z m355 -528 c162 -81 179 -616 24 -752 -86 -75 -222 -41 -278 71 -26 53
-26 55 -26 283 0 247 4 267 60 346 44 62 150 87 220 52z M13565 2760 c-16 -4
-67 -8 -112 -9 -90 -1 -119 -15 -48 -23 81 -10 75 42 75 -644 0 -693 7 -634
-79 -634 -23 0 -41 -4 -41 -10 0 -6 72 -10 195 -10 123 0 195 4 195 10 0 6
-20 10 -44 10 -84 0 -76 -66 -76 666 0 727 7 662 -65 644z M450 2740 c0 -6 26
-10 60 -10 51 0 65 -4 86 -25 l24 -25 -2 -590 c-3 -682 6 -627 -107 -637 -136
-13 -47 -23 194 -23 242 0 333 11 188 23 -107 8 -103 -5 -103 339 l0 290 113
-4 c166 -5 220 -47 234 -184 3 -30 10 -54 14 -54 13 0 11 477 -1 485 -6 4 -10
-5 -10 -20 0 -143 -80 -205 -264 -205 l-86 0 0 304 c0 256 2 305 15 316 28 23
319 9 381 -19 94 -41 164 -145 181 -267 14 -103 23 -45 21 128 l-3 183 -467 3
c-310 1 -468 -1 -468 -8z M3602 2644 c-84 -35 -59 -164 32 -164 49 0 65 8 82
42 41 79 -32 157 -114 122z M8165 2625 c-71 -70 13 -176 110 -139 47 18 56
118 12 149 -34 24 -94 19 -122 -10z M13080 2632 c-33 -27 -38 -92 -9 -126 61
-69 168 -24 156 67 -7 52 -36 77 -87 77 -21 0 -47 -8 -60 -18z M13895 2625
c-45 -44 -27 -122 32 -142 92 -32 161 79 93 147 -29 29 -94 27 -125 -5z M7271
2499 c-20 -23 -49 -43 -72 -51 l-39 -11 0 -94 0 -93 -57 -2 -58 -1 55 -6 55
-6 5 -335 c6 -357 8 -370 58 -423 104 -110 295 -62 352 87 15 40 -2 30 -34
-21 -54 -85 -151 -105 -200 -40 -20 28 -21 38 -21 380 l0 352 115 6 c63 3 111
6 105 8 -5 2 -21 2 -35 1 -13 -1 -62 1 -108 5 l-83 7 3 139 c2 76 1 139 -2
138 -3 0 -20 -18 -39 -40z M2215 2267 c-224 -75 -348 -325 -276 -556 94 -301
419 -393 634 -179 176 174 176 449 2 632 -89 93 -251 139 -360 103z m197 -33
c130 -83 170 -456 73 -673 -83 -185 -291 -172 -363 21 -51 137 -51 399 -1 534
51 135 182 188 291 118z M3172 2254 c-54 -27 -98 -74 -129 -138 l-18 -39 -5
94 c-4 71 -8 93 -18 91 -8 -1 -69 -5 -138 -9 -122 -6 -174 -23 -71 -23 29 0
58 -5 65 -12 9 -9 12 -107 12 -380 l0 -368 -26 -10 c-14 -6 -43 -10 -65 -10
-24 0 -38 -4 -34 -10 4 -6 82 -10 200 -10 118 0 196 4 200 10 4 6 -13 10 -42
10 -88 0 -85 -13 -81 305 3 279 3 280 29 336 49 103 140 176 193 156 20 -8 21
-41 1 -57 -25 -21 -19 -76 11 -99 92 -72 181 61 96 142 -55 53 -105 59 -180
21z M4075 2262 c-162 -76 -198 -265 -73 -378 41 -37 76 -55 222 -115 95 -39
153 -87 162 -135 22 -116 -85 -221 -203 -200 -126 23 -206 105 -249 256 -11
41 -12 33 -13 -110 l-1 -155 21 33 c26 40 41 40 115 2 226 -115 466 26 429
253 -16 92 -81 157 -208 208 -192 76 -246 117 -254 191 -21 209 306 195 373
-17 26 -82 34 -68 34 59 0 117 -8 145 -28 101 -14 -31 -44 -32 -103 -3 -61 31
-170 35 -224 10z M4781 2267 c-93 -35 -151 -120 -151 -220 0 -123 60 -185 255
-266 151 -63 195 -106 195 -188 0 -90 -77 -157 -180 -158 -137 0 -241 95 -271
247 -6 32 -15 55 -20 52 -13 -7 -12 -304 1 -304 6 0 10 4 10 9 0 4 11 20 25
35 l24 26 74 -39 c93 -49 156 -59 234 -36 193 56 267 264 142 399 -38 43 -86
68 -251 136 -94 38 -132 72 -148 129 -23 87 26 158 120 175 99 17 224 -69 251
-173 20 -80 29 -61 29 64 0 116 -5 132 -28 95 -16 -26 -47 -25 -103 2 -52 26
-158 34 -208 15z M5523 2266 c-127 -41 -199 -137 -159 -214 8 -16 23 -32 31
-36 87 -33 158 53 101 121 -47 55 -18 102 73 122 107 23 182 -21 201 -118 9
-51 14 -221 6 -221 -29 0 -294 -79 -336 -100 -231 -117 -161 -404 97 -401 88
1 166 47 231 136 l21 30 1 -33 c0 -81 57 -135 141 -136 68 -1 120 43 144 122
10 35 -12 26 -24 -10 -24 -67 -75 -89 -105 -46 -14 19 -16 65 -16 304 0 305
-4 333 -57 402 -56 75 -237 115 -350 78z m257 -503 c0 -158 -12 -196 -73 -250
-43 -38 -95 -50 -147 -34 -138 41 -136 274 3 355 34 20 166 61 210 65 4 1 7
-61 7 -136z M6607 2269 c-81 -19 -159 -79 -189 -145 -20 -43 -28 -25 -28 59
l0 83 -57 -7 c-32 -4 -91 -8 -130 -8 -42 -1 -73 -5 -73 -11 0 -5 23 -10 50
-10 45 0 52 -3 60 -26 13 -32 13 -714 1 -733 -5 -8 -32 -16 -65 -19 -31 -2
-53 -8 -50 -13 8 -13 384 -12 384 1 0 6 -20 10 -44 10 -77 0 -76 -4 -76 289 0
284 5 321 60 404 61 91 193 124 258 64 50 -45 52 -63 52 -412 l0 -325 -26 -10
c-14 -6 -41 -10 -60 -10 -21 0 -33 -4 -29 -10 4 -6 80 -10 195 -10 115 0 191
4 195 10 4 6 -13 10 -44 10 -84 0 -81 -11 -81 329 0 344 -5 376 -69 434 -62
56 -148 76 -234 56z M8908 2264 c-52 -16 -127 -84 -150 -134 -21 -48 -28 -35
-28 53 l0 83 -57 -7 c-32 -4 -91 -8 -130 -8 -42 -1 -73 -5 -73 -11 0 -5 22
-10 48 -10 26 0 53 -5 60 -12 17 -17 17 -739 0 -756 -7 -7 -34 -12 -60 -12
-26 0 -48 -4 -48 -10 0 -13 367 -14 375 -1 3 6 -17 11 -47 13 l-53 3 0 305 0
305 27 51 c78 148 235 163 284 27 18 -52 20 -663 2 -681 -7 -7 -31 -12 -55
-12 -24 0 -43 -4 -43 -10 0 -6 68 -10 185 -10 117 0 185 4 185 10 0 6 -19 10
-43 10 -24 0 -48 5 -55 12 -19 19 -17 539 3 605 51 172 233 227 296 90 17 -38
19 -70 19 -364 0 -361 4 -343 -74 -343 -20 0 -36 -5 -36 -10 0 -7 69 -10 190
-9 109 0 190 5 190 10 0 5 -22 9 -48 9 -74 0 -72 -10 -72 310 0 362 -15 425
-110 479 -128 71 -270 32 -341 -94 l-31 -55 -28 58 c-51 109 -160 154 -282
116z M10296 2264 c-56 -18 -140 -95 -153 -141 -6 -21 -9 -8 -13 57 -4 69 -8
84 -20 82 -8 -2 -68 -6 -132 -9 -112 -6 -168 -23 -74 -23 79 0 76 16 76 -394
0 -268 -3 -365 -12 -374 -7 -7 -34 -12 -60 -12 -26 0 -48 -5 -48 -10 0 -7 68
-10 190 -10 112 1 190 5 190 11 0 5 -19 9 -42 9 -73 0 -69 -16 -66 316 l3 299
27 51 c84 159 258 160 289 3 12 -65 11 -626 -1 -650 -8 -15 -22 -19 -61 -19
-29 0 -48 -4 -44 -9 8 -13 362 -14 370 -1 4 6 -13 10 -44 10 -74 0 -73 -3 -69
313 3 256 4 275 25 320 58 124 155 177 243 132 62 -32 65 -46 68 -406 4 -371
6 -359 -74 -359 -24 0 -44 -4 -44 -10 0 -6 70 -10 189 -10 116 0 192 4 196 10
4 6 -15 10 -50 10 -38 0 -57 4 -61 14 -3 7 -6 153 -7 322 -2 332 -7 362 -65
428 -89 100 -289 68 -377 -60 l-42 -61 -12 34 c-40 110 -177 174 -295 137z
M11535 2266 c-313 -99 -399 -523 -153 -751 290 -269 728 49 624 454 -55 214
-281 357 -471 297z m186 -28 c82 -46 118 -141 126 -335 13 -312 -61 -468 -223
-468 -72 0 -101 17 -146 81 -96 136 -94 539 3 675 48 68 163 90 240 47z
M14458 2261 c-328 -105 -381 -622 -81 -798 129 -76 275 -63 381 32 61 55 126
175 94 175 -4 0 -13 -15 -20 -33 -69 -191 -283 -255 -401 -120 -55 62 -90 188
-91 326 l0 47 266 0 266 0 -7 63 c-27 236 -206 372 -407 308z m181 -38 c48
-47 73 -125 75 -233 l1 -75 -189 -3 -188 -2 7 66 c20 186 90 284 202 284 47 0
56 -4 92 -37z M15353 2264 c-48 -18 -103 -70 -144 -140 l-29 -49 0 99 c0 89
-2 98 -17 91 -10 -3 -71 -9 -135 -12 -115 -6 -167 -23 -70 -23 26 0 53 -5 60
-12 17 -17 17 -739 0 -756 -7 -7 -34 -12 -60 -12 -26 0 -48 -4 -48 -10 0 -6
73 -10 200 -10 127 0 200 4 200 10 0 6 -24 10 -54 10 -80 0 -78 -10 -74 303
l3 275 40 78 c53 104 135 163 180 130 18 -13 18 -14 -3 -41 -47 -60 -6 -133
67 -121 50 8 66 29 66 85 0 95 -80 141 -182 105z M3650 2259 c-25 -4 -82 -8
-127 -8 -48 -1 -83 -5 -83 -11 0 -5 21 -10 48 -10 82 0 77 25 80 -382 1 -207
-2 -369 -7 -377 -5 -8 -32 -16 -65 -19 -31 -2 -56 -8 -56 -13 0 -13 387 -11
395 1 4 6 -13 10 -43 10 -80 0 -77 -19 -79 424 -1 215 -5 391 -10 392 -4 1
-28 -2 -53 -7z M13160 2258 c-25 -3 -84 -7 -132 -7 -52 -1 -88 -5 -88 -11 0
-5 22 -10 49 -10 30 0 53 -5 61 -14 8 -11 12 -114 14 -376 3 -409 7 -390 -75
-390 -27 0 -49 -4 -49 -10 0 -6 72 -10 195 -10 123 0 195 4 195 10 0 6 -19 10
-43 10 -81 0 -77 -24 -79 420 l-3 395 -45 -7z M13975 2259 c-27 -4 -85 -8
-127 -8 -45 -1 -78 -5 -78 -11 0 -5 19 -10 43 -10 76 0 72 23 75 -387 3 -415
7 -393 -75 -393 -24 0 -43 -4 -43 -10 0 -6 70 -10 189 -10 116 0 192 4 196 10
4 6 -15 10 -49 10 -30 0 -58 5 -61 11 -4 6 -9 189 -12 407 -3 218 -6 397 -7
397 0 1 -23 -2 -51 -6z M8133 2253 c-96 -4 -132 -23 -43 -23 45 0 52 -3 60
-26 6 -15 10 -172 10 -374 0 -397 4 -380 -81 -380 -31 0 -48 -4 -44 -10 4 -6
80 -10 196 -10 119 0 189 4 189 10 0 6 -20 10 -44 10 -79 0 -76 -19 -76 421
l0 389 -37 -2 c-21 -1 -80 -4 -130 -5z M507 823 c-2 -5 -3 -87 -3 -183 1 -158
3 -175 19 -178 16 -3 17 11 17 182 0 155 -2 186 -14 186 -8 0 -16 -3 -19 -7z
M920 644 c0 -171 1 -185 18 -182 15 3 18 20 22 145 l5 141 105 -143 c141 -194
140 -194 140 40 0 158 -2 185 -15 185 -13 0 -15 -23 -15 -146 0 -90 -4 -144
-10 -142 -5 2 -57 67 -115 146 -57 78 -112 142 -120 142 -13 0 -15 -27 -15
-186z M1617 823 c-85 -5 -88 -27 -4 -31 l57 -3 2 -162 c3 -145 5 -162 21 -165
16 -3 17 10 17 162 l0 166 61 0 c52 0 60 2 57 18 -3 18 -64 23 -211 15z M2174
821 c-2 -2 -4 -85 -4 -183 l0 -179 118 3 c96 2 117 6 117 18 0 12 -17 15 -95
15 l-95 0 -3 67 -3 67 93 3 c79 3 93 6 96 21 3 15 -6 17 -92 17 l-96 0 0 60 0
60 101 0 c90 0 100 2 97 18 -3 15 -17 17 -116 17 -63 0 -115 -2 -118 -4z
M2763 815 c-2 -6 -2 -87 -1 -180 3 -152 5 -170 21 -173 15 -3 17 6 17 72 l0
76 39 0 c38 0 42 -3 92 -75 35 -49 59 -75 72 -75 24 0 20 13 -33 90 l-41 60
24 9 c76 29 88 155 18 188 -28 12 -203 19 -208 8z m191 -46 c69 -54 12 -129
-99 -129 l-55 0 0 75 0 75 64 0 c49 0 69 -5 90 -21z M3377 824 c-4 -4 -7 -88
-7 -186 0 -166 1 -179 18 -176 15 3 18 20 22 148 l5 145 106 -145 c72 -99 112
-146 128 -148 l21 -3 -2 183 c-3 155 -5 183 -18 183 -13 0 -15 -24 -18 -142
-1 -79 -6 -143 -10 -143 -4 1 -54 64 -112 142 -102 138 -119 156 -133 142z
M4141 813 c-18 -36 -141 -333 -141 -343 0 -27 33 -5 52 35 l22 45 93 0 94 0
19 -45 c14 -33 25 -45 41 -45 13 0 19 5 16 13 -3 6 -33 76 -65 153 -91 213
-105 234 -131 187z m67 -135 c18 -43 32 -80 32 -83 0 -3 -34 -5 -76 -5 -57 0
-75 3 -71 13 15 35 55 134 61 151 9 26 17 15 54 -76z M4604 821 c-19 -20 1
-31 56 -31 l60 0 0 -165 c0 -140 2 -165 15 -165 15 0 15 1 19 260 l1 65 58 3
c48 3 57 6 57 21 0 17 -10 19 -131 17 -72 0 -133 -3 -135 -5z M5210 645 c0
-172 1 -186 18 -183 15 3 17 20 17 183 0 163 -2 180 -17 183 -17 3 -18 -11
-18 -183z M5716 815 c-184 -65 -154 -337 39 -353 77 -6 138 18 175 70 108 149
-40 345 -214 283z m141 -45 c124 -75 65 -275 -80 -275 -93 0 -157 76 -142 172
15 101 134 157 222 103z M6314 817 c-2 -7 -3 -89 -2 -182 3 -152 5 -170 21
-173 16 -3 17 9 17 144 0 111 3 145 11 137 7 -7 56 -72 109 -145 134 -184 135
-184 135 47 0 153 -2 180 -15 180 -12 0 -16 -25 -20 -145 l-5 -145 -110 148
c-103 139 -129 164 -141 134z M7086 798 c-12 -26 -117 -267 -143 -325 -3 -8 3
-13 16 -13 15 0 27 13 43 45 l22 45 93 0 92 0 20 -45 c20 -44 52 -62 50 -27 0
9 -33 91 -72 182 -78 179 -96 199 -121 138z m73 -120 c17 -42 31 -79 31 -82 0
-3 -34 -6 -75 -6 -41 0 -75 1 -75 3 0 2 12 32 26 68 15 35 30 75 36 88 11 31
18 23 57 -71z M7620 645 l0 -186 108 3 c87 2 107 6 107 18 0 12 -16 15 -87 15
l-86 0 -7 49 c-3 27 -5 101 -4 165 1 100 -1 116 -15 119 -14 3 -16 -16 -16
-183z"/>
</g>
</svg>
